<svg width="124" height="146" viewBox="0 0 124 146" fill="none" xmlns="http://www.w3.org/2000/svg">
<path d="M113.063 59.582C111.634 59.6762 110.192 59.5965 108.735 59.5965C108.648 59.2385 108.586 58.9845 108.526 58.7302C106.962 52.181 101.643 47.8838 94.6071 47.7241C90.0695 47.6211 85.5284 47.6555 80.9878 47.6714C85.516 41.5147 89.1505 34.0963 89.1505 26.1373C89.1505 11.7252 76.8478 0 61.7259 0C46.604 0 34.3013 11.7252 34.3013 26.1374C34.3013 33.8004 38.2061 41.3421 42.9573 47.6847C38.5311 47.6752 34.1047 47.6952 29.6787 47.6692C26.5501 47.6509 23.6444 48.3046 21.0347 49.9889C17.495 52.2736 15.4453 55.4738 14.6896 59.5979C12.7216 59.5979 10.7673 59.5746 8.81372 59.6024C3.66842 59.6758 0.159712 63.0499 0.146442 67.9392C0.132826 72.9803 0.132826 78.0214 0.146442 83.0625C0.159613 87.9484 3.68451 91.351 8.80213 91.4268C10.4447 91.4511 12.0884 91.4528 13.7306 91.4218C14.407 91.4089 14.6887 91.5965 14.8255 92.2856C15.9133 97.7647 19.2563 101.451 24.8463 103.065C29.9355 104.534 35.0834 105.832 40.2416 107.068C45.642 108.362 50.8924 106.115 53.6393 101.492C54.4674 100.098 55.1724 98.6337 56.0728 97.2859C56.3742 96.8347 57.0982 96.3975 57.6451 96.3786C60.3264 96.2859 63.0134 96.3606 65.6976 96.3223C66.5381 96.3103 67.0315 96.6245 67.4003 97.3138C68.1092 98.6386 68.8602 99.9434 69.6131 101.246C72.4723 106.195 77.8572 108.414 83.5674 106.971C88.4388 105.74 93.3224 104.546 98.1599 103.202C103.902 101.607 107.415 97.9527 108.564 92.3362C108.718 91.5873 109.01 91.4068 109.727 91.4208C111.409 91.4537 113.093 91.4598 114.775 91.4226C118.189 91.3471 120.755 89.8927 122.347 86.9978C122.751 86.2645 122.969 85.4386 123.273 84.6552V66.3194C121.792 61.1422 117.994 59.2572 113.063 59.582ZM14.514 84.5652C12.4927 84.5652 10.5759 84.5929 8.66062 84.5525C7.81846 84.5347 7.35651 84.0583 7.35716 83.216C7.36122 78.0615 7.33349 72.9067 7.40791 67.7532C7.414 67.3296 8.07806 66.578 8.47604 66.5531C10.4599 66.4286 12.457 66.4962 14.514 66.4962V84.5652ZM93.4299 54.5051C98.6042 54.4764 102.22 57.9691 101.545 63.0772C101.32 63.0162 101.092 62.989 100.898 62.8958C98.629 61.8049 96.2182 61.4189 93.6904 61.4208C85.0274 61.4275 76.3643 61.43 67.7012 61.4313C69.7782 59.732 72.4286 57.3978 75.1541 54.5603C81.2461 54.5522 87.338 54.5389 93.4299 54.5051ZM61.7259 6.13447C73.2987 6.13447 82.7139 15.1076 82.7139 26.1374C82.7139 40.5749 67.3266 53.8263 61.7956 58.1226C59.5849 56.2958 55.7673 52.9485 51.9949 48.7314C46.8596 42.9905 40.738 34.4109 40.738 26.1373C40.738 15.1075 50.153 6.13447 61.7259 6.13447ZM27.2064 54.7998C28.0839 54.5868 29.0296 54.5642 29.9441 54.5637C36.2265 54.56 42.5089 54.5647 48.7914 54.5685C51.4559 57.3852 54.0142 59.7284 55.9918 61.4311C47.2357 61.4297 38.4796 61.4272 29.7234 61.4186C26.9917 61.4159 24.4079 61.8928 21.8702 63.2134C21.5025 58.744 23.4436 55.7133 27.2064 54.7998ZM101.607 89.4893C101.601 93.2456 99.6672 95.6926 95.868 96.6889C91.2397 97.9026 86.6029 99.0869 81.9639 100.263C79.1269 100.982 77.2476 100.205 75.8415 97.7696C75.0504 96.3994 74.3054 95.0046 73.493 93.6462C71.8461 90.8927 69.3455 89.4821 66.0121 89.4641C63.1269 89.4485 60.2413 89.4441 57.3561 89.4653C54.0246 89.4899 51.5257 90.9016 49.8918 93.6682C49.0869 95.0309 48.3362 96.4226 47.5452 97.7928C46.1725 100.17 44.2562 100.977 41.524 100.283C36.8083 99.0855 32.0947 97.8796 27.3914 96.6385C23.7281 95.6719 21.8034 93.2165 21.7965 89.5804C21.7877 84.9972 21.7915 80.414 21.7949 75.8309C21.7985 71.0892 24.7227 68.3107 29.7312 68.3078C40.4311 68.3019 51.131 68.306 61.8309 68.306C72.3705 68.306 82.912 68.4176 93.4489 68.2584C98.6328 68.1801 101.818 71.7053 101.648 76.0848C101.474 80.5472 101.616 85.0206 101.607 89.4893ZM114.74 84.554C112.826 84.5922 110.91 84.5661 108.916 84.5661V66.4852C110.929 66.4852 112.883 66.467 114.837 66.4938C115.665 66.5051 116.053 67.0025 116.054 67.7664C116.058 72.9205 116.056 78.0747 116.057 83.2288C116.058 84.0722 115.581 84.5372 114.74 84.554Z" fill="white"/>
<path d="M61.6625 31.0814C64.5815 31.1238 67.0348 28.8119 67.0326 26.0208C67.0305 23.2602 64.6441 20.979 61.7449 20.966C58.8526 20.9532 56.4479 23.219 56.419 25.9845C56.3902 28.737 58.7587 31.0392 61.6625 31.0814Z" fill="white"/>
<path d="M19.8179 139.85H9.74692L7.98764 145.278H0.13623L11.3174 116.223H18.2264L29.4914 145.278H21.5977L19.8179 139.85ZM11.5056 134.442H18.0593L14.7718 124.365L11.5056 134.442Z" fill="white"/>
<path d="M43.0376 135.001H39.0594V145.278H31.7105V116.223H43.7079C47.3229 116.223 50.1494 116.987 52.1874 118.515C54.2254 120.044 55.2443 122.203 55.2443 124.994C55.2443 127.014 54.8151 128.688 53.9566 130.017C53.0987 131.346 51.7548 132.423 49.9262 133.247L56.2917 144.978V145.278H48.4185L43.0376 135.001ZM39.0594 129.613H43.7079C45.1033 129.613 46.154 129.263 46.8586 128.563C47.5633 127.862 47.9165 126.885 47.9165 125.632C47.9165 124.379 47.5606 123.395 46.8487 122.681C46.1368 121.968 45.0894 121.611 43.7079 121.611H39.0594V129.613Z" fill="white"/>
<path d="M82.1918 137.376L88.2641 116.223H96.4715L86.2122 145.278H78.172L67.9959 116.223H76.1406L82.1918 137.376Z" fill="white"/>
<path d="M110.018 135.001H106.04V145.278H98.6911V116.223H110.688C114.303 116.223 117.13 116.987 119.168 118.515C121.206 120.044 122.225 122.203 122.225 124.994C122.225 127.014 121.796 128.688 120.937 130.017C120.079 131.346 118.735 132.423 116.907 133.247L123.272 144.978V145.278H115.399L110.018 135.001ZM106.04 129.613H110.688C112.084 129.613 113.135 129.263 113.839 128.563C114.544 127.862 114.897 126.885 114.897 125.632C114.897 124.379 114.541 123.395 113.829 122.681C113.117 121.968 112.07 121.611 110.688 121.611H106.04V129.613Z" fill="white"/>
</svg>
